# xmcd
#
# Track frame offsets: 
#        150
#        19115
#        39075
#        61568
#        83885
#        103735
#        126440
#        147863
#        168348
#        192808
#        217705
#        239758
#
# Disc length: 3523 seconds
#
# Revision: 0
# Processed by: cddbd v1.5.2PL0 Copyright (c) Steve Scherf et al.
# Submitted via: ExactAudioCopy v1.0b3
#
DISCID=990dc10c
DTITLE=Son Tuyen - Tinh
DYEAR=1989
DGENRE=
TTITLE0=Mot lan dang do
TTITLE1=Giot sau trinh nu
TTITLE2=Tam su voi anh
TTITLE3=Son Tuyen, Khanh Dung - Ngot ngao
TTITLE4=Bai ca cho nguoi ky nu
TTITLE5=Han tinh trong mua
TTITLE6=Kiep dam me
TTITLE7=Bay ngay doi mong
TTITLE8=Son Tuyen, Khanh Dung - Sao roi tren bien
TTITLE9=Tinh
TTITLE10=Sau con mua
TTITLE11=Son Tuyen, Khanh Dung - Chieu Tay Do
EXTD=
EXTT0=
EXTT1=
EXTT2=
EXTT3=
EXTT4=
EXTT5=
EXTT6=
EXTT7=
EXTT8=
EXTT9=
EXTT10=
EXTT11=
PLAYORDER=
